{
  "accessors": [
    {
      "bufferView": 2,
      "componentType": 5126,
      "count": 65532,
      "max": [
        -6.330620765686035,
        -20.607500076293945,
        -2.0770697593688965
      ],
      "min": [
        -39.7223014831543,
        -31.00659942626953,
        -29.078899383544922
      ],
      "type": "VEC3"
    },
    {
      "bufferView": 2,
      "byteOffset": 786384,
      "componentType": 5126,
      "count": 65532,
      "max": [
        0.9998292326927185,
        1.0,
        0.9998005032539368
      ],
      "min": [
        -0.9967641234397888,
        -1.0,
        -0.9991226196289063
      ],
      "type": "VEC3"
    },
    {
      "bufferView": 1,
      "componentType": 5126,
      "count": 65532,
      "max": [
        0.9997900128364563,
        0.9862790107727051
      ],
      "min": [
        0.0873199999332428,
        0.0029899999499320984
      ],
      "type": "VEC2"
    },
    {
      "bufferView": 0,
      "componentType": 5125,
      "count": 345804,
      "type": "SCALAR"
    },
    {
      "bufferView": 2,
      "byteOffset": 1572768,
      "componentType": 5126,
      "count": 65532,
      "max": [
        -5.195619583129883,
        -20.61280059814453,
        -2.3202900886535645
      ],
      "min": [
        -37.14910125732422,
        -31.042400360107422,
        -31.90119743347168
      ],
      "type": "VEC3"
    },
    {
      "bufferView": 2,
      "byteOffset": 2359152,
      "componentType": 5126,
      "count": 65532,
      "max": [
        0.9999173283576965,
        1.0,
        0.9986391067504883
      ],
      "min": [
        -0.9992281198501587,
        -1.0,
        -0.9998244643211365
      ],
      "type": "VEC3"
    },
    {
      "bufferView": 1,
      "byteOffset": 524256,
      "componentType": 5126,
      "count": 65532,
      "max": [
        0.999925971031189,
        0.9891780018806458
      ],
      "min": [
        3.600000127335079e-05,
        2.9000000722589903e-05
      ],
      "type": "VEC2"
    },
    {
      "bufferView": 0,
      "byteOffset": 1383216,
      "componentType": 5125,
      "count": 334215,
      "type": "SCALAR"
    },
    {
      "bufferView": 2,
      "byteOffset": 3145536,
      "componentType": 5126,
      "count": 65532,
      "max": [
        -5.508509635925293,
        -20.60810089111328,
        -4.2417402267456055
      ],
      "min": [
        -39.64290237426758,
        -32.366600036621094,
        -31.90180015563965
      ],
      "type": "VEC3"
    },
    {
      "bufferView": 2,
      "byteOffset": 3931920,
      "componentType": 5126,
      "count": 65532,
      "max": [
        0.9999383687973022,
        1.0,
        0.9985688924789429
      ],
      "min": [
        -0.9997850060462952,
        -1.0,
        -0.9999717473983765
      ],
      "type": "VEC3"
    },
    {
      "bufferView": 1,
      "byteOffset": 1048512,
      "componentType": 5126,
      "count": 65532,
      "max": [
        0.9999430179595947,
        0.9828310012817383
      ],
      "min": [
        0.008066999725997448,
        0.004557999782264233
      ],
      "type": "VEC2"
    },
    {
      "bufferView": 0,
      "byteOffset": 2720076,
      "componentType": 5125,
      "count": 327645,
      "type": "SCALAR"
    },
    {
      "bufferView": 2,
      "byteOffset": 4718304,
      "componentType": 5126,
      "count": 933,
      "max": [
        -9.611900329589844,
        -20.615699768066406,
        -18.14579963684082
      ],
      "min": [
        -21.802600860595703,
        -25.065099716186523,
        -26.338699340820313
      ],
      "type": "VEC3"
    },
    {
      "bufferView": 2,
      "byteOffset": 4729500,
      "componentType": 5126,
      "count": 933,
      "max": [
        0.3191601037979126,
        1.0,
        0.043473996222019196
      ],
      "min": [
        -0.9808727502822876,
        -0.9999954700469971,
        -0.9823850989341736
      ],
      "type": "VEC3"
    },
    {
      "bufferView": 1,
      "byteOffset": 1572768,
      "componentType": 5126,
      "count": 933,
      "max": [
        0.9521030187606812,
        0.9846289753913879
      ],
      "min": [
        0.09149999916553497,
        0.0060430001467466354
      ],
      "type": "VEC2"
    },
    {
      "bufferView": 0,
      "byteOffset": 4030656,
      "componentType": 5125,
      "count": 2907,
      "type": "SCALAR"
    },
    {
      "bufferView": 2,
      "byteOffset": 4740696,
      "componentType": 5126,
      "count": 65532,
      "max": [
        -5.398780822753906,
        -20.6117000579834,
        -3.499610185623169
      ],
      "min": [
        -41.631900787353516,
        -31.67889976501465,
        -26.936599731445313
      ],
      "type": "VEC3"
    },
    {
      "bufferView": 2,
      "byteOffset": 5527080,
      "componentType": 5126,
      "count": 65532,
      "max": [
        0.9990585446357727,
        1.0,
        0.997498095035553
      ],
      "min": [
        -0.9994814991950989,
        -1.0,
        -0.9999593496322632
      ],
      "type": "VEC3"
    },
    {
      "bufferView": 1,
      "byteOffset": 1580232,
      "componentType": 5126,
      "count": 65532,
      "max": [
        0.9920979738235474,
        0.9910309910774231
      ],
      "min": [
        0.00016799999866634607,
        0.00016700000560376793
      ],
      "type": "VEC2"
    },
    {
      "bufferView": 0,
      "byteOffset": 4042284,
      "componentType": 5125,
      "count": 356772,
      "type": "SCALAR"
    },
    {
      "bufferView": 2,
      "byteOffset": 6313464,
      "componentType": 5126,
      "count": 65532,
      "max": [
        -12.40149974822998,
        -20.607500076293945,
        -1.9972102642059326
      ],
      "min": [
        -42.00299835205078,
        -32.3489990234375,
        -31.90119743347168
      ],
      "type": "VEC3"
    },
    {
      "bufferView": 2,
      "byteOffset": 7099848,
      "componentType": 5126,
      "count": 65532,
      "max": [
        0.9990585446357727,
        1.0,
        0.9997557401657104
      ],
      "min": [
        -0.9994007349014282,
        -1.0,
        -0.9997486472129822
      ],
      "type": "VEC3"
    },
    {
      "bufferView": 1,
      "byteOffset": 2104488,
      "componentType": 5126,
      "count": 65532,
      "max": [
        0.9940099716186523,
        0.9978839755058289
      ],
      "min": [
        0.001234999974258244,
        0.003611000021919608
      ],
      "type": "VEC2"
    },
    {
      "bufferView": 0,
      "byteOffset": 5469372,
      "componentType": 5125,
      "count": 353316,
      "type": "SCALAR"
    },
    {
      "bufferView": 2,
      "byteOffset": 7886232,
      "componentType": 5126,
      "count": 45940,
      "max": [
        -5.419059753417969,
        -20.613300323486328,
        -1.1230299472808838
      ],
      "min": [
        -32.891998291015625,
        -30.86079978942871,
        -27.28070068359375
      ],
      "type": "VEC3"
    },
    {
      "bufferView": 2,
      "byteOffset": 8437512,
      "componentType": 5126,
      "count": 45940,
      "max": [
        0.9985890984535217,
        1.0,
        0.9991849064826965
      ],
      "min": [
        -0.9985761046409607,
        -1.0,
        -0.9996123313903809
      ],
      "type": "VEC3"
    },
    {
      "bufferView": 1,
      "byteOffset": 2628744,
      "componentType": 5126,
      "count": 45940,
      "max": [
        0.9997929930686951,
        0.9806910157203674
      ],
      "min": [
        0.00803999975323677,
        0.0007050000131130219
      ],
      "type": "VEC2"
    },
    {
      "bufferView": 0,
      "byteOffset": 6882636,
      "componentType": 5125,
      "count": 231144,
      "type": "SCALAR"
    }
  ],
  "asset": {
    "extras": {
      "author": "AD&D  4D (https://sketchfab.com/add4d)",
      "license": "CC-BY-NC-4.0 (http://creativecommons.org/licenses/by-nc/4.0/)",
      "source": "https://sketchfab.com/3d-models/ermita-de-sant-roc-carcaixent-valencia-4413768a539a406caeb10dd4648dcf21",
      "title": "Ermita de Sant Roc, Carcaixent, València"
    },
    "generator": "Sketchfab-12.51.0",
    "version": "2.0"
  },
  "bufferViews": [
    {
      "buffer": 0,
      "byteLength": 7807212,
      "name": "floatBufferViews",
      "target": 34963
    },
    {
      "buffer": 0,
      "byteLength": 2996264,
      "byteOffset": 7807212,
      "byteStride": 8,
      "name": "floatBufferViews",
      "target": 34962
    },
    {
      "buffer": 0,
      "byteLength": 8988792,
      "byteOffset": 10803476,
      "byteStride": 12,
      "name": "floatBufferViews",
      "target": 34962
    }
  ],
  "buffers": [
    {
      "byteLength": 19792268,
      "uri": "scene.bin"
    }
  ],
  "images": [
    {
      "uri": "textures/20211029ErmitaDeSantRocOpt_baseColor.jpeg"
    },
    {
      "uri": "textures/20211029ErmitaDeSantRocOpt_metallicRoughness.png"
    },
    {
      "uri": "textures/20211029ErmitaDeSantRocOpt1_baseColor.jpeg"
    },
    {
      "uri": "textures/20211029ErmitaDeSantRocOpt1_metallicRoughness.png"
    }
  ],
  "materials": [
    {
      "doubleSided": true,
      "name": "20211029ErmitaDeSantRocOpt",
      "occlusionTexture": {
        "index": 1,
        "strength": 0.426
      },
      "pbrMetallicRoughness": {
        "baseColorTexture": {
          "index": 0
        },
        "metallicFactor": 0.0,
        "metallicRoughnessTexture": {
          "index": 1
        }
      }
    },
    {
      "doubleSided": true,
      "name": "20211029ErmitaDeSantRocOpt1",
      "occlusionTexture": {
        "index": 3,
        "strength": 0.42628711529804775
      },
      "pbrMetallicRoughness": {
        "baseColorTexture": {
          "index": 2
        },
        "metallicFactor": 0.0,
        "metallicRoughnessTexture": {
          "index": 3
        }
      }
    }
  ],
  "meshes": [
    {
      "name": "Object_0",
      "primitives": [
        {
          "attributes": {
            "NORMAL": 1,
            "POSITION": 0,
            "TEXCOORD_0": 2
          },
          "indices": 3,
          "material": 0,
          "mode": 4
        }
      ]
    },
    {
      "name": "Object_1",
      "primitives": [
        {
          "attributes": {
            "NORMAL": 5,
            "POSITION": 4,
            "TEXCOORD_0": 6
          },
          "indices": 7,
          "material": 0,
          "mode": 4
        }
      ]
    },
    {
      "name": "Object_2",
      "primitives": [
        {
          "attributes": {
            "NORMAL": 9,
            "POSITION": 8,
            "TEXCOORD_0": 10
          },
          "indices": 11,
          "material": 0,
          "mode": 4
        }
      ]
    },
    {
      "name": "Object_3",
      "primitives": [
        {
          "attributes": {
            "NORMAL": 13,
            "POSITION": 12,
            "TEXCOORD_0": 14
          },
          "indices": 15,
          "material": 0,
          "mode": 4
        }
      ]
    },
    {
      "name": "Object_4",
      "primitives": [
        {
          "attributes": {
            "NORMAL": 17,
            "POSITION": 16,
            "TEXCOORD_0": 18
          },
          "indices": 19,
          "material": 1,
          "mode": 4
        }
      ]
    },
    {
      "name": "Object_5",
      "primitives": [
        {
          "attributes": {
            "NORMAL": 21,
            "POSITION": 20,
            "TEXCOORD_0": 22
          },
          "indices": 23,
          "material": 1,
          "mode": 4
        }
      ]
    },
    {
      "name": "Object_6",
      "primitives": [
        {
          "attributes": {
            "NORMAL": 25,
            "POSITION": 24,
            "TEXCOORD_0": 26
          },
          "indices": 27,
          "material": 1,
          "mode": 4
        }
      ]
    }
  ],
  "nodes": [
    {
      "children": [
        1
      ],
      "matrix": [
        1.0,
        0.0,
        0.0,
        0.0,
        0.0,
        -1.0,
        -4.440892098500626e-16,
        0.0,
        0.0,
        4.440892098500626e-16,
        -1.0,
        0.0,
        0.0,
        -42.999542236328125,
        9.974558830261222,
        1.0
      ],
      "name": "Sketchfab_model"
    },
    {
      "children": [
        2,
        3,
        4,
        5,
        6,
        7,
        8
      ],
      "name": "20211029ErmitaDeSantRocOpt.obj.cleaner.materialmerger.gles"
    },
    {
      "mesh": 0,
      "name": "Object_2"
    },
    {
      "mesh": 1,
      "name": "Object_3"
    },
    {
      "mesh": 2,
      "name": "Object_4"
    },
    {
      "mesh": 3,
      "name": "Object_5"
    },
    {
      "mesh": 4,
      "name": "Object_6"
    },
    {
      "mesh": 5,
      "name": "Object_7"
    },
    {
      "mesh": 6,
      "name": "Object_8"
    }
  ],
  "samplers": [
    {
      "magFilter": 9729,
      "minFilter": 9987,
      "wrapS": 10497,
      "wrapT": 10497
    }
  ],
  "scene": 0,
  "scenes": [
    {
      "name": "Sketchfab_Scene",
      "nodes": [
        0
      ]
    }
  ],
  "textures": [
    {
      "sampler": 0,
      "source": 0
    },
    {
      "sampler": 0,
      "source": 1
    },
    {
      "sampler": 0,
      "source": 2
    },
    {
      "sampler": 0,
      "source": 3
    }
  ]
}
